<svg width="18" height="18" viewBox="0 0 18 18" fill="none" xmlns="http://www.w3.org/2000/svg">
<g clip-path="url(#clip0_2813_1283)">
<rect width="18" height="18" rx="4" fill="#E2B53A"/>
<path d="M5.71864 15.6972L6.4453 16.9558C6.89498 17.7346 7.01684 18.6602 6.78406 19.529C6.55129 20.3977 5.98295 21.1384 5.20408 21.588C4.42521 22.0377 3.4996 22.1596 2.63088 21.9268C1.76217 21.694 1.02149 21.1257 0.571813 20.3468L-2.81924 14.4733M-2.81924 14.4733C-1.34774 17.0221 1.91131 17.8953 4.46004 16.4238L11.1726 12.5483C13.7213 11.0768 14.5946 7.81777 13.1231 5.26904M-2.81924 14.4733C-4.29075 11.9246 -3.41749 8.66558 -0.868763 7.19407L5.84379 3.31858C8.39252 1.84707 11.6516 2.72032 13.1231 5.26904M9.91399 13.275L10.6406 14.5336C11.0903 15.3125 11.831 15.8808 12.6997 16.1136C13.5684 16.3463 14.494 16.2245 15.2729 15.7748C16.0518 15.3251 16.6201 14.5844 16.8529 13.7157C17.0857 12.847 16.9638 11.9214 16.5141 11.1425L13.1231 5.26904M3.89328 10.5979L0.536999 12.5356M1.24626 9.88861L3.18401 13.2449" stroke="white" stroke-width="1.5" stroke-linecap="round" stroke-linejoin="round"/>
<path d="M9.70185 6.12559C9.4343 5.66218 8.84175 5.50341 8.37834 5.77096C7.91494 6.0385 7.75616 6.63106 8.02371 7.09446C8.29126 7.55787 8.88381 7.71664 9.34722 7.4491C9.81062 7.18155 9.96939 6.58899 9.70185 6.12559Z" fill="white"/>
<path d="M9.2348 9.19214C8.96725 8.72873 8.3747 8.56996 7.9113 8.8375C7.44789 9.10505 7.28912 9.6976 7.55666 10.161C7.82421 10.6244 8.41676 10.7832 8.88017 10.5156C9.34357 10.2481 9.50235 9.65554 9.2348 9.19214Z" fill="white"/>
</g>
<defs>
<clipPath id="clip0_2813_1283">
<rect width="18" height="18" rx="4" fill="white"/>
</clipPath>
</defs>
</svg>
